<svg width="18" height="18" viewBox="0 0 18 18" fill="none" xmlns="http://www.w3.org/2000/svg">
<path d="M4.02578 10.1417C3.72967 10.6694 3.25408 11.0734 2.68543 11.2802C2.11678 11.487 1.4928 11.483 0.92688 11.2688V16.6899C0.927015 16.7827 0.963967 16.8718 1.02963 16.9374C1.0953 17.0031 1.18433 17.0401 1.27719 17.0402H3.70548C3.79834 17.0401 3.88737 17.0031 3.95303 16.9374C4.0187 16.8718 4.05565 16.7827 4.05579 16.6899V10.1494C4.0558 10.1458 4.05463 10.1424 4.05245 10.1396C4.05027 10.1368 4.04722 10.1348 4.04377 10.1339C4.04032 10.133 4.03668 10.1333 4.03342 10.1347C4.03016 10.1361 4.02747 10.1386 4.02578 10.1417Z" fill="white"/>
<path d="M6.50083 5.92938L5.26599 7.18254V16.6899C5.26613 16.7827 5.30308 16.8718 5.36875 16.9374C5.43441 17.0031 5.52344 17.0401 5.6163 17.0402H8.04458C8.13745 17.0401 8.22648 17.0031 8.29214 16.9374C8.35781 16.8718 8.39476 16.7827 8.3949 16.6899V6.44928L7.87421 5.92818C7.42514 6.05417 6.95012 6.05458 6.50083 5.92938Z" fill="white"/>
<path d="M9.6051 9.43369V16.6899C9.60524 16.7827 9.64219 16.8718 9.70785 16.9374C9.77352 17.0031 9.86255 17.0401 9.95541 17.0402H12.3837C12.4766 17.0401 12.5656 17.0031 12.6313 16.9374C12.6969 16.8718 12.7339 16.7827 12.734 16.6899V9.56584C12.2738 9.8993 11.7144 10.0677 11.1466 10.0437C10.5787 10.0197 10.0356 9.80476 9.6051 9.43368L9.6051 9.43369Z" fill="white"/>
<path d="M15.4894 5.02535L13.9441 6.57069V16.6899C13.9442 16.7827 13.9812 16.8718 14.0468 16.9374C14.1125 17.0031 14.2015 17.0401 14.2944 17.0402H16.7227C16.8156 17.0401 16.9046 17.0031 16.9702 16.9374C17.0359 16.8718 17.0729 16.7827 17.073 16.6899V4.95767C16.5661 5.14961 16.0109 5.17333 15.4894 5.02535L15.4894 5.02535Z" fill="white"/>
<path d="M16.1782 0.959809C15.8842 0.959581 15.5955 1.03883 15.3428 1.18918C15.0901 1.33953 14.8827 1.55539 14.7426 1.81393C14.6024 2.07246 14.5348 2.36406 14.5468 2.65788C14.5588 2.9517 14.6499 3.23682 14.8107 3.48308L12.1439 6.14989C11.8743 5.97375 11.5586 5.88147 11.2367 5.88473C10.9147 5.88799 10.6009 5.98664 10.335 6.16821L8.55278 4.3857C8.71347 4.13933 8.80462 3.85413 8.8166 3.56023C8.82859 3.26633 8.76096 2.97465 8.62087 2.71602C8.48078 2.45738 8.27342 2.24139 8.02071 2.09087C7.768 1.94034 7.47933 1.86088 7.18519 1.86087C6.89104 1.86086 6.60236 1.9403 6.34964 2.09081C6.09693 2.24132 5.88955 2.4573 5.74945 2.71592C5.60934 2.97455 5.54169 3.26622 5.55366 3.56012C5.56562 3.85402 5.65676 4.13923 5.81743 4.38561L2.71209 7.53614C2.37335 7.31544 1.96485 7.22806 1.56547 7.29086C1.16608 7.35366 0.804119 7.5622 0.549463 7.87622C0.294808 8.19023 0.165513 8.58746 0.186541 8.9912C0.207568 9.39495 0.377427 9.7766 0.663325 10.0625C0.949223 10.3483 1.33089 10.5181 1.73464 10.5391C2.13839 10.5601 2.5356 10.4307 2.84958 10.176C3.16356 9.92134 3.37205 9.55936 3.43481 9.15996C3.49756 8.76057 3.41013 8.35209 3.18938 8.01337L6.29466 4.86293C6.5594 5.036 6.86883 5.12817 7.18512 5.12817C7.50141 5.12817 7.81084 5.036 8.07558 4.86293L9.86767 6.65526C9.7128 6.90368 9.62757 7.18915 9.62088 7.48181C9.61419 7.77447 9.6863 8.06354 9.82966 8.31877C9.97302 8.57399 10.1823 8.78599 10.4357 8.93256C10.6891 9.07914 10.9773 9.1549 11.27 9.15191C11.5627 9.14893 11.8492 9.06731 12.0996 8.91559C12.3499 8.76388 12.5549 8.54766 12.693 8.28956C12.8312 8.03146 12.8974 7.74098 12.8847 7.44852C12.872 7.15606 12.781 6.87238 12.6211 6.62718L15.288 3.96028C15.5009 4.09892 15.7433 4.18594 15.9958 4.2144C16.2483 4.24286 16.504 4.21198 16.7425 4.12422C16.9809 4.03646 17.1956 3.89425 17.3694 3.7089C17.5432 3.52355 17.6714 3.30018 17.7437 3.05658C17.8159 2.81297 17.8304 2.55586 17.7858 2.3057C17.7411 2.05554 17.6388 1.81925 17.4867 1.61564C17.3347 1.41203 17.1373 1.24671 16.9101 1.13285C16.683 1.019 16.4323 0.959743 16.1782 0.959809Z" fill="white"/>
</svg>
