<svg width="18" height="18" viewBox="0 0 18 18" fill="none" xmlns="http://www.w3.org/2000/svg">
<path d="M10.9406 12.3609C10.9406 12.2984 10.9187 12.2359 10.875 12.1734C10.525 11.7545 10.2438 11.3952 10.0312 11.0954C10.1624 10.8391 10.2625 10.6016 10.331 10.383L11.7842 10.158C11.8406 10.1517 11.8906 10.119 11.9343 10.0597C11.978 10.0001 11.9997 9.93929 11.9997 9.8768V8.14231C11.9997 8.07365 11.978 8.01264 11.9343 7.95961C11.8906 7.90658 11.8375 7.87365 11.775 7.86133L10.3499 7.6457C10.281 7.43315 10.1748 7.17676 10.0311 6.8769C10.1247 6.73931 10.2655 6.55175 10.453 6.31438C10.6405 6.07684 10.772 5.90816 10.8468 5.80814C10.8906 5.74565 10.9124 5.68622 10.9124 5.63003C10.9124 5.46125 10.4624 4.96125 9.56262 4.12997C9.50016 4.08006 9.43452 4.05507 9.36553 4.05507C9.2907 4.05507 9.22821 4.07671 9.17797 4.12064L8.07168 4.95501C7.81552 4.8238 7.58114 4.72697 7.36862 4.66428L7.15298 3.22999C7.14684 3.1675 7.11555 3.11273 7.0593 3.0659C7.00302 3.01905 6.94053 2.99557 6.87171 2.99557H5.12809C4.98437 2.99557 4.89062 3.07057 4.84688 3.22053C4.77182 3.50808 4.70001 3.98943 4.63125 4.66428C4.36255 4.75176 4.12192 4.85178 3.90944 4.96427L2.83135 4.12061C2.76886 4.07677 2.70326 4.05503 2.63446 4.05503C2.51556 4.05503 2.26873 4.23938 1.89377 4.6082C1.51875 4.97688 1.26236 5.25501 1.12498 5.44254C1.08117 5.49261 1.0594 5.5551 1.0594 5.6301C1.0594 5.68628 1.08114 5.74877 1.12498 5.81753C1.47491 6.23639 1.75612 6.59575 1.96867 6.89561C1.83746 7.152 1.73751 7.38937 1.66881 7.6081L0.215637 7.83296C0.159322 7.8392 0.109378 7.87197 0.0655743 7.93124C0.021869 7.99074 0 8.05159 0 8.11404V9.84843C0 9.91722 0.021869 9.9781 0.0655743 10.0311C0.109378 10.0844 0.162442 10.114 0.225061 10.1202L1.65003 10.3452C1.72503 10.5826 1.8345 10.839 1.97823 11.114C1.87821 11.2516 1.7314 11.4423 1.53763 11.6859C1.34373 11.9298 1.21567 12.0954 1.15321 12.1828C1.10948 12.2453 1.08757 12.3049 1.08757 12.3608C1.08757 12.5299 1.53763 13.0297 2.43761 13.861C2.5001 13.9109 2.56564 13.9357 2.6345 13.9357C2.71574 13.9357 2.77822 13.9141 2.82193 13.8702L3.92815 13.036C4.18431 13.1672 4.4187 13.264 4.63128 13.3265L4.84692 14.7609C4.85309 14.8234 4.88442 14.8782 4.9406 14.925C4.99685 14.9718 5.05934 14.9952 5.12813 14.9952H6.87174C7.01556 14.9952 7.10925 14.9203 7.15302 14.7702C7.22802 14.4764 7.29983 13.9921 7.36865 13.317C7.61857 13.2423 7.85916 13.1451 8.09046 13.0266L9.16858 13.8702C9.23107 13.9141 9.29668 13.9357 9.36547 13.9357C9.48424 13.9357 9.72966 13.7499 10.1015 13.3778C10.4732 13.0062 10.7311 12.7263 10.875 12.5388C10.9187 12.4952 10.9406 12.4359 10.9406 12.3609ZM7.69676 10.6924C7.22811 11.161 6.66244 11.3954 6 11.3954C5.33739 11.3954 4.77172 11.1609 4.30308 10.6924C3.83437 10.2236 3.59999 9.65788 3.59999 8.9954C3.59999 8.33296 3.83437 7.76729 4.30308 7.29858C4.77172 6.82984 5.33743 6.59552 6 6.59552C6.66244 6.59552 7.22811 6.82981 7.69676 7.29858C8.16556 7.76729 8.39988 8.33296 8.39988 8.9954C8.39988 9.65788 8.16559 10.2236 7.69676 10.6924Z" fill="white"/>
<path d="M16.603 12.8486C16.5219 12.6674 16.428 12.5049 16.3219 12.3611C16.6407 11.6547 16.7999 11.2234 16.7999 11.0672C16.7999 11.0425 16.7876 11.0205 16.7625 11.0017C16.0123 10.5643 15.6249 10.3455 15.5999 10.3455L15.5437 10.3644C15.2875 10.6207 14.9998 10.9706 14.6812 11.4144C14.5563 11.4019 14.4627 11.3955 14.4002 11.3955C14.3375 11.3955 14.2439 11.4019 14.1188 11.4144C14.0316 11.283 13.8689 11.072 13.6314 10.7815C13.394 10.491 13.2502 10.3455 13.2002 10.3455C13.1877 10.3455 13.094 10.3955 12.9189 10.4958C12.7439 10.5958 12.5596 10.7018 12.3658 10.8146C12.1719 10.9273 12.0627 10.9895 12.0377 11.0021C12.0125 11.0208 12.0001 11.0428 12.0001 11.0675C12.0001 11.2239 12.1595 11.6549 12.4782 12.3613C12.3721 12.5052 12.2782 12.6677 12.197 12.8487C11.2657 12.9423 10.8 13.0393 10.8 13.1393V14.4517C10.8 14.5517 11.2657 14.6486 12.197 14.7423C12.2719 14.9111 12.3657 15.0736 12.4782 15.2296C12.1595 15.9359 12.0001 16.3672 12.0001 16.5234C12.0001 16.5483 12.0125 16.5704 12.0377 16.589C12.8 17.0328 13.1877 17.2546 13.2002 17.2546C13.2501 17.2546 13.394 17.1077 13.6314 16.814C13.8689 16.5202 14.0314 16.3079 14.1188 16.1766C14.2438 16.1889 14.3375 16.1951 14.4002 16.1951C14.4626 16.1951 14.5563 16.1889 14.6812 16.1766C14.7685 16.3079 14.9311 16.5202 15.1686 16.814C15.406 17.1077 15.5497 17.2546 15.5999 17.2546C15.6124 17.2546 16.0001 17.0327 16.7625 16.589C16.7876 16.5704 16.7999 16.5485 16.7999 16.5234C16.7999 16.3672 16.6405 15.9359 16.3219 15.2296C16.4344 15.0736 16.528 14.9111 16.603 14.7423C17.5343 14.6486 18 14.5517 18 14.4517V13.1393C18 13.0393 17.5343 12.9423 16.603 12.8486ZM15.2482 14.6438C15.0142 14.8782 14.7312 14.9956 14.3999 14.9956C14.0686 14.9956 13.7857 14.8782 13.5515 14.6438C13.3171 14.4094 13.1998 14.1267 13.1998 13.7954C13.1998 13.4705 13.3187 13.189 13.5562 12.9517C13.7936 12.7143 14.075 12.5955 14.3999 12.5955C14.7248 12.5955 15.0063 12.7142 15.2438 12.9517C15.4811 13.1891 15.6 13.4705 15.6 13.7954C15.5998 14.1267 15.4828 14.4094 15.2482 14.6438Z" fill="white"/>
<path d="M16.603 3.24854C16.5219 3.06728 16.428 2.90481 16.3219 2.76095C16.6407 2.0548 16.7999 1.62353 16.7999 1.4673C16.7999 1.44241 16.7876 1.42044 16.7625 1.40166C16.0123 0.964176 15.6249 0.745453 15.5999 0.745453L15.5437 0.76417C15.2875 1.02056 14.9998 1.37046 14.6812 1.81418C14.5563 1.80177 14.4627 1.79546 14.4002 1.79546C14.3375 1.79546 14.2439 1.80177 14.1188 1.81418C14.0316 1.68293 13.8689 1.47202 13.6314 1.18142C13.394 0.890754 13.2502 0.745486 13.2002 0.745486C13.1877 0.745486 13.094 0.79543 12.9189 0.895515C12.7439 0.995633 12.5596 1.10183 12.3658 1.21436C12.1719 1.32692 12.0627 1.38937 12.0377 1.40179C12.0125 1.42054 12.0001 1.44241 12.0001 1.46743C12.0001 1.62366 12.1595 2.05497 12.4782 2.76115C12.3721 2.90497 12.2782 3.06741 12.197 3.24867C11.2657 3.34235 10.8 3.43919 10.8 3.53921V4.85171C10.8 4.95167 11.2657 5.0486 12.197 5.14225C12.2719 5.31093 12.3657 5.4735 12.4782 5.62977C12.1595 6.33608 12.0001 6.76719 12.0001 6.92349C12.0001 6.94835 12.0125 6.97032 12.0377 6.98907C12.8 7.43278 13.1877 7.65466 13.2002 7.65466C13.2501 7.65466 13.394 7.50785 13.6314 7.21406C13.8689 6.92027 14.0314 6.70789 14.1188 6.57658C14.2438 6.58899 14.3375 6.59532 14.4002 6.59532C14.4626 6.59532 14.5563 6.58899 14.6812 6.57658C14.7685 6.70789 14.9311 6.92024 15.1686 7.21406C15.406 7.50785 15.5497 7.65466 15.5999 7.65466C15.6124 7.65466 16.0001 7.43278 16.7625 6.98907C16.7876 6.97032 16.7999 6.94845 16.7999 6.92349C16.7999 6.76719 16.6405 6.33608 16.3219 5.62977C16.4344 5.4735 16.528 5.31103 16.603 5.14225C17.5343 5.04857 18 4.95167 18 4.85171V3.53921C18 3.43919 17.5343 3.34232 16.603 3.24854ZM15.2482 5.04384C15.0142 5.27826 14.7312 5.39545 14.3999 5.39545C14.0686 5.39545 13.7857 5.27826 13.5515 5.04384C13.3171 4.80955 13.1998 4.5267 13.1998 4.19544C13.1998 3.87046 13.3187 3.58915 13.5562 3.35165C13.7936 3.11414 14.075 2.99537 14.3999 2.99537C14.7248 2.99537 15.0063 3.11427 15.2438 3.35165C15.4811 3.58912 15.6 3.87046 15.6 4.19544C15.5998 4.5267 15.4828 4.80955 15.2482 5.04384Z" fill="white"/>
</svg>
