<svg width="18" height="18" viewBox="0 0 18 18" fill="none" xmlns="http://www.w3.org/2000/svg">
<path d="M3.60007 5.40004C4.26268 5.40004 4.82822 5.16575 5.29686 4.69698C5.76567 4.22824 6.00009 3.66253 6.00009 3.00005C6.00009 2.33764 5.76567 1.77193 5.29686 1.30312C4.82822 0.834377 4.26264 0.599957 3.60007 0.599957C2.93752 0.599957 2.37195 0.834377 1.9032 1.30312C1.43449 1.77193 1.20007 2.3375 1.20007 3.00005C1.20007 3.66266 1.43449 4.22824 1.9032 4.69698C2.37195 5.16562 2.93752 5.40004 3.60007 5.40004Z" fill="white"/>
<path d="M6.45461 9.14561C7.15774 9.84851 8.00608 10.2001 8.99997 10.2001C9.99391 10.2001 10.8422 9.84851 11.5453 9.14561C12.2483 8.44226 12.5999 7.59382 12.5999 6.60012C12.5999 5.60636 12.2483 4.75796 11.5453 4.05479C10.8422 3.35163 9.99391 3.00005 8.99997 3.00005C8.00608 3.00005 7.15768 3.3517 6.45461 4.05479C5.75155 4.75786 5.3999 5.60626 5.3999 6.60012C5.3999 7.59399 5.75155 8.44235 6.45461 9.14561Z" fill="white"/>
<path d="M14.4003 5.40004C15.0626 5.40004 15.6283 5.16575 16.097 4.69698C16.5657 4.22824 16.8 3.66253 16.8 3.00005C16.8 2.33764 16.5657 1.77193 16.097 1.30312C15.6283 0.834377 15.0626 0.599957 14.4003 0.599957C13.7375 0.599957 13.172 0.834377 12.7032 1.30312C12.2346 1.77193 12.0002 2.3375 12.0002 3.00005C12.0002 3.66266 12.2347 4.22824 12.7032 4.69698C13.172 5.16562 13.7375 5.40004 14.4003 5.40004Z" fill="white"/>
<path d="M16.8373 5.40017C16.8 5.40017 16.6641 5.46581 16.4297 5.59706C16.1955 5.72837 15.8906 5.8612 15.5157 5.9956C15.1409 6.12987 14.7688 6.19708 14.4002 6.19708C13.9813 6.19708 13.566 6.12527 13.1533 5.98145C13.1843 6.21258 13.2001 6.4189 13.2001 6.60015C13.2001 7.46891 12.9469 8.26888 12.4404 9.00015C13.4531 9.03151 14.2811 9.43142 14.9251 10.2004H16.1813C16.6937 10.2004 17.125 10.0735 17.4749 9.82047C17.8249 9.56753 18 9.19704 18 8.70961C18.0001 6.50319 17.6127 5.40004 16.8373 5.40017Z" fill="white"/>
<path d="M15.4363 12.9798C15.3707 12.6141 15.2878 12.275 15.1878 11.9626C15.0878 11.6499 14.9534 11.3454 14.7848 11.0485C14.616 10.7519 14.4222 10.4986 14.2034 10.2891C13.9845 10.0796 13.7173 9.91267 13.4018 9.7875C13.0862 9.66253 12.7376 9.60007 12.3565 9.60007C12.2939 9.60007 12.1596 9.66729 11.9533 9.80169C11.747 9.93596 11.5191 10.0862 11.269 10.2516C11.0189 10.417 10.6848 10.5671 10.2658 10.7015C9.84674 10.8359 9.42492 10.9032 9.00015 10.9032C8.57521 10.9032 8.15326 10.8359 7.73449 10.7015C7.31563 10.5671 6.98135 10.417 6.73133 10.2516C6.48125 10.0862 6.2532 9.93596 6.04699 9.80169C5.84068 9.66729 5.70637 9.60007 5.64379 9.60007C5.26259 9.60007 4.91416 9.66253 4.5985 9.7875C4.28284 9.91267 4.01568 10.0796 3.79696 10.2891C3.57804 10.4983 3.38447 10.7519 3.21559 11.0485C3.04691 11.3454 2.91254 11.6499 2.81252 11.9626C2.71253 12.275 2.62981 12.6141 2.56408 12.9798C2.4984 13.3454 2.4547 13.6859 2.43283 14.0017C2.41093 14.3173 2.40002 14.6409 2.40002 14.9721C2.40002 15.722 2.62807 16.3143 3.08431 16.7485C3.5407 17.1827 4.147 17.4001 4.90309 17.4001H13.097C13.8531 17.4001 14.4594 17.1827 14.9159 16.7485C15.3721 16.3143 15.6002 15.722 15.6002 14.9721C15.6002 14.6409 15.5892 14.3174 15.5676 14.0017C15.5454 13.6859 15.5017 13.3454 15.4363 12.9798Z" fill="white"/>
<path d="M5.55933 9.00011C5.05306 8.26884 4.79999 7.46888 4.80009 6.60012C4.80009 6.41886 4.81575 6.21268 4.84694 5.98141C4.43438 6.12514 4.01877 6.19705 3.60001 6.19705C3.23125 6.19705 2.85948 6.12987 2.48442 5.99557C2.10952 5.86117 1.80473 5.72834 1.57044 5.59703C1.33606 5.46578 1.20001 5.40014 1.16255 5.40014C0.387505 5.40017 0 6.50332 0 8.70958C0 9.197 0.175019 9.5675 0.524959 9.82044C0.874997 10.0735 1.30627 10.2001 1.81862 10.2001H3.07495C3.71878 9.43139 4.54678 9.03144 5.55933 9.00011Z" fill="white"/>
</svg>
